<svg width="48" height="48" viewBox="0 0 48 48" fill="none" xmlns="http://www.w3.org/2000/svg" xmlns:xlink="http://www.w3.org/1999/xlink">
<path d="M37.414,13.414C38.195,12.633 38.195,11.367 37.414,10.586C36.633,9.805 35.367,9.805 34.586,10.586L37.414,13.414ZM10.586,34.586C9.805,35.367 9.805,36.633 10.586,37.414C11.367,38.195 12.633,38.195 13.414,37.414L10.586,34.586ZM34.586,10.586L10.586,34.586L13.414,37.414L37.414,13.414L34.586,10.586Z" fill="#000000"/>
<path d="M13.414,10.586C12.633,9.805 11.367,9.805 10.586,10.586C9.805,11.367 9.805,12.633 10.586,13.414L13.414,10.586ZM34.586,37.414C35.367,38.195 36.633,38.195 37.414,37.414C38.195,36.633 38.195,35.367 37.414,34.586L34.586,37.414ZM10.586,13.414L34.586,37.414L37.414,34.586L13.414,10.586L10.586,13.414Z" fill="#000000"/>
</svg>
