<svg width="338" height="300" viewBox="0 0 338 300" fill="none" xmlns="http://www.w3.org/2000/svg" xmlns:xlink="http://www.w3.org/1999/xlink">
<path d="M108,60C108,44.087 114.321,28.826 125.574,17.574C136.826,6.321 152.087,0 168,0C183.913,0 199.174,6.321 210.426,17.574C221.678,28.826 228,44.087 228,60C228,75.913 221.678,91.174 210.426,102.426C199.174,113.679 183.913,120 168,120C152.087,120 136.826,113.679 125.574,102.426C114.321,91.174 108,75.913 108,60ZM228,108C228,95.27 233.058,83.061 242.058,74.059C251.06,65.057 263.27,60 276,60C288.73,60 300.94,65.057 309.942,74.059C318.942,83.061 324,95.27 324,108C324,120.73 318.942,132.939 309.942,141.941C300.94,150.943 288.73,156 276,156C263.27,156 251.06,150.943 242.058,141.941C233.058,132.939 228,120.73 228,108ZM12,108C12,95.27 17.057,83.061 26.059,74.059C35.061,65.057 47.27,60 60,60C72.73,60 84.939,65.057 93.941,74.059C102.943,83.061 108,95.27 108,108C108,120.73 102.943,132.939 93.941,141.941C84.939,150.943 72.73,156 60,156C47.27,156 35.061,150.943 26.059,141.941C17.057,132.939 12,120.73 12,108ZM76.96,193.888C86.717,178.589 100.175,165.998 116.087,157.278C132,148.558 149.855,143.991 168,144C183.197,143.986 198.226,147.182 212.102,153.379C225.978,159.575 238.39,168.633 248.524,179.958C258.658,191.283 266.284,204.622 270.906,219.098C275.528,233.576 277.04,248.866 275.344,263.968C275.136,265.844 274.49,267.644 273.456,269.224C272.422,270.804 271.028,272.116 269.392,273.056C238.536,290.76 203.574,300.052 168,300C132.426,300.056 97.461,290.764 66.608,273.056C64.971,272.116 63.579,270.804 62.545,269.224C61.51,267.644 60.863,265.844 60.656,263.968C57.969,239.434 63.719,214.716 76.96,193.888Z" clip-rule="evenodd" fill-rule="evenodd" fill="#FFFFFF"/>
<path d="M57.313,180.062C41.533,204.42 34.181,233.283 36.385,262.222C26.777,260.765 17.328,258.408 8.161,255.182L6.321,254.542C4.68,253.959 3.242,252.913 2.183,251.53C1.124,250.147 0.488,248.486 0.353,246.75L0.193,244.814C-0.453,236.781 0.525,228.701 3.07,221.054C5.615,213.408 9.674,206.353 15.005,200.31C20.336,194.266 26.83,189.359 34.099,185.88C41.368,182.401 49.263,180.422 57.313,180.062ZM299.618,262.222C301.822,233.283 294.47,204.42 278.69,180.062C286.74,180.422 294.636,182.401 301.904,185.88C309.174,189.359 315.666,194.266 320.998,200.31C326.328,206.353 330.388,213.408 332.932,221.054C335.478,228.701 336.456,236.781 335.81,244.814L335.65,246.75C335.512,248.484 334.874,250.141 333.816,251.52C332.756,252.9 331.32,253.944 329.682,254.526L327.842,255.166C318.77,258.366 309.346,260.75 299.618,262.222Z" fill="#FFFFFF"/>
</svg>
