<svg width="40" height="44" viewBox="0 0 40 44" fill="none" xmlns="http://www.w3.org/2000/svg" xmlns:xlink="http://www.w3.org/1999/xlink">
<path d="M37,12L39,12C39,11.291 38.625,10.635 38.014,10.276L37,12ZM20,2L21.014,0.276C20.388,-0.092 19.612,-0.092 18.986,0.276L20,2ZM3,12L1.986,10.276C1.375,10.635 1,11.291 1,12L3,12ZM3,32L1,32C1,32.709 1.375,33.365 1.986,33.724L3,32ZM20,42L18.986,43.724C19.612,44.092 20.388,44.092 21.014,43.724L20,42ZM37,32L38.014,33.724C38.625,33.365 39,32.709 39,32L37,32ZM38.014,10.276L21.014,0.276L18.986,3.724L35.986,13.724L38.014,10.276ZM18.986,0.276L1.986,10.276L4.014,13.724L21.014,3.724L18.986,0.276ZM1,12L1,32L5,32L5,12L1,12ZM1.986,33.724L18.986,43.724L21.014,40.276L4.014,30.276L1.986,33.724ZM21.014,43.724L38.014,33.724L35.986,30.276L18.986,40.276L21.014,43.724ZM39,32L39,12L35,12L35,32L39,32Z" fill="#8D8E8E"/>
<path d="M22,20C22,18.895 21.105,18 20,18C18.895,18 18,18.895 18,20L22,20ZM18,28C18,29.105 18.895,30 20,30C21.105,30 22,29.105 22,28L18,28ZM30,16C30,14.895 29.105,14 28,14C26.895,14 26,14.895 26,16L30,16ZM26,28C26,29.105 26.895,30 28,30C29.105,30 30,29.105 30,28L26,28ZM14,24C14,22.895 13.105,22 12,22C10.895,22 10,22.895 10,24L14,24ZM10,28C10,29.105 10.895,30 12,30C13.105,30 14,29.105 14,28L10,28ZM18,20L18,28L22,28L22,20L18,20ZM26,16L26,28L30,28L30,16L26,16ZM10,24L10,28L14,28L14,24L10,24Z" fill="#8D8E8E"/>
</svg>
