<svg width="36" height="38" viewBox="0 0 36 38" fill="none" xmlns="http://www.w3.org/2000/svg" xmlns:xlink="http://www.w3.org/1999/xlink">
<path d="M2,32L0,31.999C0,32.529 0.21,33.038 0.585,33.414C0.96,33.789 1.469,34 2,34L2,32ZM2.005,24.043L4.005,24.044L4.005,24.043L2.005,24.043ZM34.001,32L34.001,34C35.106,34 36.001,33.105 36.001,32L34.001,32ZM4,32.001L4.005,24.044L0.005,24.042L0,31.999L4,32.001ZM4.005,24.043C4.005,24.308 3.9,24.563 3.712,24.75L0.884,21.922C0.321,22.484 0.005,23.247 0.005,24.043L4.005,24.043ZM3.712,24.75C3.525,24.938 3.27,25.043 3.005,25.043L3.005,21.043C2.209,21.043 1.446,21.359 0.884,21.922L3.712,24.75ZM3.005,25.043L13.007,25.043L13.007,21.043L3.005,21.043L3.005,25.043ZM13.007,25.043C13.528,25.043 14.212,24.925 14.816,24.425C15.397,23.942 15.638,23.323 15.749,22.884C15.942,22.129 15.924,21.113 15.924,20.279L11.924,20.279C11.924,20.78 11.924,21.151 11.912,21.452C11.906,21.598 11.898,21.707 11.889,21.787C11.88,21.87 11.872,21.901 11.873,21.897C11.874,21.895 11.891,21.826 11.946,21.725C12.005,21.617 12.105,21.476 12.263,21.345C12.608,21.059 12.947,21.043 13.007,21.043L13.007,25.043ZM15.924,20.279C15.924,18.981 15.122,18.007 14.674,17.487C14.414,17.185 14.106,16.857 13.843,16.573C13.564,16.27 13.291,15.968 13.025,15.64C12.014,14.396 11.022,12.707 11.022,9.853L7.022,9.853C7.022,13.84 8.481,16.391 9.921,18.163C10.267,18.589 10.608,18.965 10.903,19.285C11.215,19.623 11.442,19.863 11.642,20.095C12.113,20.643 11.924,20.604 11.924,20.279L15.924,20.279ZM11.022,9.853C11.022,6.994 12.048,5.399 13.294,4.457C14.633,3.445 16.481,3 18.32,3L18.32,-1C15.939,-1 13.138,-0.439 10.883,1.266C8.535,3.04 7.022,5.871 7.022,9.853L11.022,9.853ZM18.32,3C20.154,3 21.851,3.443 23.052,4.415C24.178,5.327 25.137,6.921 25.137,9.853L29.137,9.853C29.137,5.944 27.798,3.112 25.57,1.307C23.417,-0.437 20.706,-1 18.32,-1L18.32,3ZM25.137,9.853C25.137,12.689 24.166,14.229 23.173,15.402C22.904,15.719 22.632,16.011 22.342,16.322C22.066,16.617 21.752,16.953 21.474,17.294C20.927,17.963 20.261,18.952 20.261,20.279L24.261,20.279C24.261,20.357 24.204,20.274 24.572,19.823C24.751,19.604 24.97,19.368 25.265,19.052C25.547,18.751 25.884,18.39 26.225,17.988C27.67,16.282 29.137,13.858 29.137,9.853L25.137,9.853ZM20.261,20.279C20.261,20.89 20.261,21.413 20.274,21.829C20.287,22.215 20.313,22.675 20.422,23.096C20.542,23.564 20.835,24.253 21.582,24.689C22.195,25.048 22.828,25.043 23.041,25.043L23.041,21.043C22.988,21.043 23.025,21.04 23.106,21.053C23.193,21.067 23.382,21.108 23.599,21.235C23.832,21.372 24.013,21.557 24.136,21.749C24.247,21.922 24.286,22.061 24.295,22.099C24.306,22.141 24.284,22.066 24.272,21.7C24.261,21.363 24.261,20.917 24.261,20.279L20.261,20.279ZM23.041,25.043L33.001,25.043L33.001,21.043L23.041,21.043L23.041,25.043ZM33.001,25.043C32.736,25.043 32.481,24.938 32.294,24.75L35.122,21.922C34.56,21.359 33.797,21.043 33.001,21.043L33.001,25.043ZM32.294,24.75C32.106,24.563 32.001,24.308 32.001,24.043L36.001,24.043C36.001,23.247 35.685,22.484 35.122,21.922L32.294,24.75ZM32.001,24.043L32.001,32L36.001,32L36.001,24.043L32.001,24.043ZM34.001,30L2,30L2,34L34.001,34L34.001,30Z" fill="#8D8E8E"/>
<line x1="2" y1="36" x2="34" y2="36" stroke="#8D8E8E" stroke-width="2" stroke-miterlimit="3.999327" stroke-linecap="round" stroke-linejoin="round"/>
</svg>
