<svg width="36" height="44" viewBox="0 0 36 44" fill="none" xmlns="http://www.w3.org/2000/svg" xmlns:xlink="http://www.w3.org/1999/xlink">
<path d="M24.5,10C24.5,13.59 21.59,16.5 18,16.5L18,19.5C23.247,19.5 27.5,15.247 27.5,10L24.5,10ZM18,16.5C14.41,16.5 11.5,13.59 11.5,10L8.5,10C8.5,15.247 12.753,19.5 18,19.5L18,16.5ZM11.5,10C11.5,6.41 14.41,3.5 18,3.5L18,0.5C12.753,0.5 8.5,4.753 8.5,10L11.5,10ZM18,3.5C21.59,3.5 24.5,6.41 24.5,10L27.5,10C27.5,4.753 23.247,0.5 18,0.5L18,3.5Z" fill="#8D8E8E"/>
<path d="M32.5,33C32.5,35.615 32.419,37.088 31.053,38.201C30.312,38.804 29.073,39.393 26.952,39.822C24.839,40.25 21.948,40.5 18,40.5L18,43.5C22.052,43.5 25.161,43.246 27.548,42.763C29.927,42.281 31.688,41.552 32.947,40.527C35.581,38.382 35.5,35.355 35.5,33L32.5,33ZM18,40.5C14.052,40.5 11.161,40.25 9.048,39.822C6.927,39.393 5.688,38.804 4.947,38.201C3.581,37.088 3.5,35.615 3.5,33L0.5,33C0.5,35.355 0.419,38.382 3.053,40.527C4.312,41.552 6.073,42.281 8.452,42.763C10.839,43.246 13.948,43.5 18,43.5L18,40.5ZM3.5,33C3.5,31.298 4.743,29.451 7.422,27.944C10.054,26.463 13.791,25.5 18,25.5L18,22.5C13.373,22.5 9.11,23.552 5.951,25.329C2.839,27.079 0.5,29.732 0.5,33L3.5,33ZM18,25.5C22.209,25.5 25.946,26.463 28.578,27.944C31.257,29.451 32.5,31.298 32.5,33L35.5,33C35.5,29.732 33.161,27.079 30.049,25.329C26.89,23.552 22.627,22.5 18,22.5L18,25.5Z" fill="#8D8E8E"/>
</svg>
