<svg width="48" height="48" viewBox="0 0 48 48" fill="none" xmlns="http://www.w3.org/2000/svg" xmlns:xlink="http://www.w3.org/1999/xlink">
<path d="M18.04,5.68L17.119,4.496L17.118,4.497L18.04,5.68ZM7.26,14.08L8.181,15.264L8.182,15.263L7.26,14.08ZM40.4,14.1L39.539,15.328L39.542,15.331L40.4,14.1ZM28.04,5.44L28.901,4.212L28.9,4.211L28.04,5.44ZM17.118,4.497L6.338,12.897L8.182,15.263L18.962,6.863L17.118,4.497ZM6.339,12.896C5.212,13.773 4.268,15.072 3.608,16.417C2.949,17.761 2.5,19.299 2.5,20.72L5.5,20.72C5.5,19.881 5.781,18.799 6.302,17.738C6.822,16.678 7.508,15.787 8.181,15.264L6.339,12.896ZM2.5,20.72L2.5,35.54L5.5,35.54L5.5,20.72L2.5,20.72ZM2.5,35.54C2.5,41.004 6.947,45.48 12.42,45.48L12.42,42.48C8.613,42.48 5.5,39.356 5.5,35.54L2.5,35.54ZM12.42,45.48L35.58,45.48L35.58,42.48L12.42,42.48L12.42,45.48ZM35.58,45.48C41.051,45.48 45.5,41.006 45.5,35.56L42.5,35.56C42.5,39.354 39.389,42.48 35.58,42.48L35.58,45.48ZM45.5,35.56L45.5,21L42.5,21L42.5,35.56L45.5,35.56ZM45.5,21C45.5,19.486 45.003,17.867 44.272,16.466C43.541,15.065 42.497,13.733 41.258,12.869L39.542,15.331C40.283,15.847 41.039,16.755 41.613,17.854C42.187,18.953 42.5,20.094 42.5,21L45.5,21ZM41.261,12.872L28.901,4.212L27.179,6.668L39.539,15.328L41.261,12.872ZM28.9,4.211C27.192,3.015 25.038,2.489 22.967,2.538C20.897,2.586 18.769,3.213 17.119,4.496L18.961,6.864C20.011,6.047 21.483,5.574 23.038,5.537C24.592,5.501 26.088,5.905 27.18,6.669L28.9,4.211Z" fill="#FFFFFF"/>
<line x1="22.5" y1="29.98" x2="22.5" y2="35.98" stroke="#FFFFFF" stroke-width="1.5" stroke-miterlimit="3.999327" stroke-linecap="round" stroke-linejoin="round"/>
</svg>
