<svg width="48" height="48" viewBox="0 0 48 48" fill="none" xmlns="http://www.w3.org/2000/svg" xmlns:xlink="http://www.w3.org/1999/xlink">
<path d="M24,32C28.412,32 32,28.412 32,24C32,19.588 28.412,16 24,16C19.588,16 16,19.588 16,24C16,28.412 19.588,32 24,32ZM24,20C26.168,20 28,21.832 28,24C28,26.168 26.168,28 24,28C21.832,28 20,26.168 20,24C20,21.832 21.832,20 24,20Z" fill="#076A39"/>
<path d="M5.69,32.272L7.69,35.732C8.752,37.566 11.308,38.254 13.15,37.192L14.208,36.58C15.372,37.494 16.65,38.244 18,38.804L18,40C18,42.206 19.794,44 22,44L26,44C28.206,44 30,42.206 30,40L30,38.804C31.35,38.244 32.628,37.494 33.792,36.582L34.85,37.194C36.696,38.254 39.246,37.57 40.312,35.732L42.31,32.274C43.414,30.364 42.758,27.912 40.848,26.81L39.838,26.226C39.946,25.484 40,24.742 40,24C40,23.258 39.946,22.514 39.838,21.778L40.848,21.194C42.758,20.09 43.414,17.64 42.31,15.73L40.312,12.272C39.25,10.432 36.696,9.742 34.85,10.808L33.792,11.42C32.628,10.506 31.35,9.756 30,9.196L30,8C30,5.794 28.206,4 26,4L22,4C19.794,4 18,5.794 18,8L18,9.196C16.65,9.756 15.372,10.506 14.208,11.418L13.15,10.806C11.302,9.744 8.75,10.432 7.688,12.27L5.69,15.728C4.586,17.638 5.242,20.09 7.152,21.192L8.162,21.776C8.054,22.514 8,23.258 8,24C8,24.742 8.054,25.484 8.162,26.222L7.152,26.806C5.242,27.91 4.586,30.362 5.69,32.272ZM12.342,26.756C12.116,25.85 12,24.922 12,24C12,23.076 12.116,22.148 12.34,21.244C12.556,20.378 12.174,19.474 11.4,19.028L9.154,17.728L11.15,14.27L13.44,15.594C14.208,16.036 15.174,15.924 15.816,15.31C17.182,14.016 18.83,13.048 20.584,12.512C21.426,12.256 22,11.478 22,10.6L22,8L26,8L26,10.6C26,11.478 26.574,12.256 27.416,12.512C29.17,13.05 30.818,14.016 32.184,15.31C32.826,15.924 33.796,16.034 34.56,15.594L36.848,14.272L38.848,17.73L36.6,19.028C35.826,19.476 35.444,20.38 35.66,21.244C35.884,22.148 36,23.076 36,24C36,24.922 35.884,25.85 35.658,26.756C35.444,27.622 35.826,28.526 36.6,28.972L38.846,30.27L36.85,33.728L34.56,32.406C33.794,31.964 32.826,32.074 32.184,32.69C30.818,33.984 29.17,34.952 27.416,35.488C26.574,35.744 26,36.522 26,37.4L26.004,40L22,40L22,37.4C22,36.522 21.426,35.744 20.584,35.488C18.83,34.95 17.182,33.984 15.816,32.69C15.436,32.326 14.94,32.14 14.44,32.14C14.096,32.14 13.752,32.228 13.44,32.408L11.152,33.732L9.152,30.274L11.4,28.972C12.174,28.526 12.556,27.622 12.342,26.756Z" fill="#076A39"/>
</svg>
