<svg width="40" height="56" viewBox="0 0 40 56" fill="none" xmlns="http://www.w3.org/2000/svg" xmlns:xlink="http://www.w3.org/1999/xlink">
<path d="M20,0C8.959,0 0,8.064 0,18C0,34 20,56 20,56C20,56 40,34 40,18C40,8.064 31.041,0 20,0ZM20,28C18.418,28 16.871,27.531 15.555,26.652C14.24,25.773 13.214,24.523 12.609,23.061C12.003,21.6 11.845,19.991 12.154,18.439C12.462,16.887 13.224,15.462 14.343,14.343C15.462,13.224 16.887,12.462 18.439,12.154C19.991,11.845 21.6,12.003 23.061,12.609C24.523,13.214 25.773,14.24 26.652,15.555C27.531,16.871 28,18.418 28,20C27.998,22.121 27.154,24.155 25.654,25.654C24.155,27.154 22.121,27.998 20,28Z" fill="#EF4444"/>
</svg>
