<svg width="40" height="34" viewBox="0 0 40 34" fill="none" xmlns="http://www.w3.org/2000/svg" xmlns:xlink="http://www.w3.org/1999/xlink">
<path d="M30,0C31.009,0 31.981,0.381 32.721,1.067C33.461,1.753 33.914,2.694 33.99,3.7L34,4L34,8L36,8C37.009,8 37.981,8.381 38.721,9.067C39.461,9.753 39.914,10.694 39.99,11.7L40,12L40,30C40,31.009 39.619,31.981 38.933,32.721C38.247,33.461 37.306,33.914 36.3,33.99L36,34L28,34C27.352,34 26.713,33.843 26.139,33.541C25.565,33.239 25.073,32.802 24.706,32.268L24.536,32L4,32C2.991,32 2.019,31.619 1.279,30.933C0.539,30.247 0.086,29.306 0.01,28.3L0,28L0,4C0,2.991 0.381,2.019 1.067,1.279C1.753,0.539 2.694,0.086 3.7,0.01L4,0L30,0ZM36,12L28,12L28,30L36,30L36,12ZM30,4L4,4L4,28L24,28L24,12C24,10.939 24.421,9.922 25.172,9.172C25.922,8.421 26.939,8 28,8L30,8L30,4Z" fill="#8D8E8E"/>
</svg>
