<svg width="44" height="34" viewBox="0 0 44 34" fill="none" xmlns="http://www.w3.org/2000/svg" xmlns:xlink="http://www.w3.org/1999/xlink">
<path d="M22,18C25.746,18 29.14,19.24 31.63,20.974C33.996,22.624 36,25.076 36,27.714C36,29.162 35.382,30.362 34.408,31.254C33.492,32.096 32.296,32.642 31.064,33.014C28.602,33.76 25.36,34 22,34C18.64,34 15.398,33.76 12.936,33.014C11.704,32.642 10.508,32.096 9.59,31.254C8.62,30.364 8,29.164 8,27.716C8,25.078 10.004,22.626 12.37,20.976C14.86,19.24 18.254,18 22,18ZM22,22C19.12,22 16.514,22.96 14.66,24.254C12.682,25.634 12,27.038 12,27.714C12,28.322 12.704,28.702 13.344,28.942L13.754,29.082L14.094,29.186C15.974,29.754 18.734,30 22,30C25.016,30 27.598,29.79 29.456,29.312L30.064,29.138L30.444,29.018C31.13,28.784 32,28.39 32,27.714C32,27.038 31.318,25.634 29.34,24.254C27.488,22.962 24.88,22 22,22ZM36,20C38.088,20 39.984,20.69 41.386,21.666C42.666,22.56 44,24.046 44,25.858C44,28.528 41.406,29.484 39.074,29.818L38.474,29.892L37.896,29.942C37.804,29.948 37.712,29.953 37.62,29.958C37.864,29.268 38,28.518 38,27.714C37.999,27.116 37.927,26.519 37.786,25.938C38.558,25.878 39.192,25.778 39.664,25.636C39.872,25.572 39.684,25.376 39.464,25.206L39.25,25.05L39.098,24.948C38.498,24.538 37.821,24.254 37.108,24.112C36.348,22.592 35.18,21.276 33.936,20.226C34.614,20.076 35.306,20 36,20ZM8,20C8.714,20 9.406,20.08 10.064,20.226C8.82,21.276 7.652,22.592 6.892,24.112C6.179,24.254 5.502,24.538 4.902,24.948L4.646,25.124C4.392,25.308 4.094,25.564 4.336,25.636C4.808,25.778 5.442,25.88 6.216,25.938C6.073,26.519 6,27.115 6,27.714C6,28.518 6.136,29.268 6.38,29.958L5.82,29.918L5.228,29.858C2.824,29.564 0,28.644 0,25.858C0,24.048 1.332,22.56 2.614,21.666C4.2,20.579 6.078,19.998 8,20ZM35,8C36.326,8 37.598,8.527 38.536,9.464C39.473,10.402 40,11.674 40,13C40,14.326 39.473,15.598 38.536,16.536C37.598,17.473 36.326,18 35,18C33.674,18 32.402,17.473 31.464,16.536C30.527,15.598 30,14.326 30,13C30,11.674 30.527,10.402 31.464,9.464C32.402,8.527 33.674,8 35,8ZM9,8C10.326,8 11.598,8.527 12.536,9.464C13.473,10.402 14,11.674 14,13C14,14.326 13.473,15.598 12.536,16.536C11.598,17.473 10.326,18 9,18C7.674,18 6.402,17.473 5.464,16.536C4.527,15.598 4,14.326 4,13C4,11.674 4.527,10.402 5.464,9.464C6.402,8.527 7.674,8 9,8ZM22,0C24.122,0 26.157,0.843 27.657,2.343C29.157,3.843 30,5.878 30,8C30,10.122 29.157,12.157 27.657,13.657C26.157,15.157 24.122,16 22,16C19.878,16 17.843,15.157 16.343,13.657C14.843,12.157 14,10.122 14,8C14,5.878 14.843,3.843 16.343,2.343C17.843,0.843 19.878,0 22,0ZM35,12C34.735,12 34.48,12.105 34.293,12.293C34.105,12.48 34,12.735 34,13C34,13.265 34.105,13.52 34.293,13.707C34.48,13.895 34.735,14 35,14C35.265,14 35.52,13.895 35.707,13.707C35.895,13.52 36,13.265 36,13C36,12.735 35.895,12.48 35.707,12.293C35.52,12.105 35.265,12 35,12ZM9,12C8.735,12 8.48,12.105 8.293,12.293C8.105,12.48 8,12.735 8,13C8,13.265 8.105,13.52 8.293,13.707C8.48,13.895 8.735,14 9,14C9.265,14 9.52,13.895 9.707,13.707C9.895,13.52 10,13.265 10,13C10,12.735 9.895,12.48 9.707,12.293C9.52,12.105 9.265,12 9,12ZM22,4C20.939,4 19.922,4.421 19.172,5.172C18.421,5.922 18,6.939 18,8C18,9.061 18.421,10.078 19.172,10.828C19.922,11.579 20.939,12 22,12C23.061,12 24.078,11.579 24.828,10.828C25.579,10.078 26,9.061 26,8C26,6.939 25.579,5.922 24.828,5.172C24.078,4.421 23.061,4 22,4Z" clip-rule="evenodd" fill-rule="evenodd" fill="#8D8E8E"/>
</svg>
