<svg width="36" height="40" viewBox="0 0 36 40" fill="none" xmlns="http://www.w3.org/2000/svg" xmlns:xlink="http://www.w3.org/1999/xlink">
<path d="M32,23.172L32,16C32,9.566 27.63,4.146 21.71,2.516C21.124,1.04 19.692,0 18,0C16.308,0 14.876,1.04 14.29,2.516C8.37,4.148 4,9.566 4,16L4,23.172L0.586,26.586C0.21,26.96 0,27.468 0,28L0,32C0,33.106 0.894,34 2,34L34,34C35.106,34 36,33.106 36,32L36,28C36,27.468 35.79,26.96 35.414,26.586L32,23.172ZM32,30L4,30L4,28.828L7.414,25.414C7.79,25.04 8,24.532 8,24L8,16C8,10.486 12.486,6 18,6C23.514,6 28,10.486 28,16L28,24C28,24.532 28.21,25.04 28.586,25.414L32,28.828L32,30ZM18,40C20.622,40 22.814,38.332 23.636,36L12.364,36C13.186,38.332 15.378,40 18,40Z" fill="#8A8B8C"/>
</svg>
