<svg width="40" height="56" viewBox="0 0 40 56" fill="none" xmlns="http://www.w3.org/2000/svg" xmlns:xlink="http://www.w3.org/1999/xlink">
<path d="M19,0C7.959,0 -1,8.064 -1,18C-1,34 19,56 19,56C19,56 39,34 39,18C39,8.064 30.041,0 19,0ZM19,28C17.418,28 15.871,27.531 14.555,26.652C13.24,25.773 12.214,24.523 11.609,23.061C11.003,21.6 10.845,19.991 11.154,18.439C11.462,16.887 12.224,15.462 13.343,14.343C14.462,13.224 15.887,12.462 17.439,12.154C18.991,11.845 20.6,12.003 22.061,12.609C23.523,13.214 24.773,14.24 25.652,15.555C26.531,16.871 27,18.418 27,20C26.998,22.121 26.154,24.155 24.654,25.654C23.155,27.154 21.121,27.998 19,28Z" fill="#EF4444"/>
</svg>
