<svg width="294" height="250" viewBox="0 0 294 250" fill="none" xmlns="http://www.w3.org/2000/svg" xmlns:xlink="http://www.w3.org/1999/xlink">
<path d="M263.445,57.778C270.831,57.776 277.945,60.565 283.361,65.588C288.777,70.61 292.095,77.494 292.649,84.86L292.723,87.056L292.723,218.806C292.725,226.192 289.935,233.306 284.913,238.722C279.891,244.138 273.007,247.456 265.641,248.01L263.445,248.084L204.889,248.084C197.503,248.086 190.388,245.296 184.972,240.274C179.556,235.25 176.238,228.366 175.684,221.002L175.611,218.806L175.611,87.056C175.609,79.669 178.399,72.555 183.421,67.139C188.443,61.723 195.328,58.405 202.693,57.851L204.889,57.778L263.445,57.778ZM219.529,-0.778C227.293,-0.778 234.741,2.307 240.231,7.798C245.721,13.288 248.807,20.735 248.807,28.5L190.25,28.5C178.603,28.5 167.432,33.127 159.196,41.363C150.96,49.599 146.333,60.769 146.333,72.417L146.333,233.444L29.222,233.444C21.457,233.444 14.01,230.36 8.52,224.868C3.029,219.378 -0.055,211.932 -0.055,204.166L-0.055,28.5C-0.055,20.735 3.029,13.288 8.52,7.798C14.01,2.307 21.457,-0.778 29.222,-0.778L219.529,-0.778Z" fill="#FFFFFF"/>
</svg>
