<svg width="46" height="30" viewBox="0 0 46 30" fill="none" xmlns="http://www.w3.org/2000/svg" xmlns:xlink="http://www.w3.org/1999/xlink">
<path d="M44.027,13.544C43.964,13.398 42.404,9.939 38.92,6.455C35.687,3.226 30.134,-0.625 22,-0.625C13.866,-0.625 8.312,3.226 5.08,6.455C1.596,9.939 0.036,13.393 -0.028,13.544C-0.092,13.688 -0.125,13.844 -0.125,14.002C-0.125,14.159 -0.092,14.315 -0.028,14.459C0.036,14.604 1.596,18.063 5.08,21.547C8.312,24.776 13.866,28.625 22,28.625C30.134,28.625 35.687,24.776 38.92,21.547C42.404,18.063 43.964,14.609 44.027,14.459C44.092,14.315 44.125,14.159 44.125,14.002C44.125,13.844 44.092,13.688 44.027,13.544ZM22,26.375C16.116,26.375 10.979,24.234 6.728,20.013C4.946,18.242 3.438,16.216 2.254,14C3.438,11.785 4.946,9.759 6.728,7.989C10.979,3.766 16.116,1.625 22,1.625C27.884,1.625 33.021,3.766 37.272,7.989C39.054,9.759 40.562,11.785 41.746,14C40.551,16.289 34.562,26.375 22,26.375ZM22,5.375C20.294,5.375 18.627,5.881 17.208,6.829C15.79,7.776 14.684,9.123 14.032,10.699C13.379,12.275 13.208,14.01 13.541,15.683C13.874,17.356 14.695,18.893 15.901,20.099C17.107,21.305 18.644,22.126 20.317,22.459C21.99,22.792 23.725,22.621 25.301,21.968C26.877,21.316 28.224,20.21 29.171,18.792C30.119,17.373 30.625,15.706 30.625,14C30.622,11.713 29.712,9.521 28.095,7.904C26.479,6.288 24.287,5.378 22,5.375ZM22,20.375C20.739,20.375 19.507,20.001 18.458,19.301C17.41,18.6 16.593,17.604 16.11,16.44C15.628,15.275 15.501,13.993 15.747,12.756C15.993,11.52 16.601,10.384 17.492,9.492C18.384,8.601 19.52,7.993 20.756,7.747C21.993,7.502 23.275,7.628 24.44,8.11C25.604,8.593 26.6,9.41 27.301,10.458C28.001,11.507 28.375,12.739 28.375,14C28.375,15.691 27.703,17.312 26.508,18.508C25.312,19.703 23.691,20.375 22,20.375Z" fill="#000000"/>
</svg>
